<svg width="75" height="24" viewBox="0 0 75 24" fill="none" xmlns="http://www.w3.org/2000/svg">
<path d="M6.98438 24L0 0H6.41016L10.0312 15.7266H10.2305L14.3672 0H19.5937L23.7305 15.7617H23.9297L27.5625 0H33.9609L26.9883 24H21.3984L17.0742 9.44531H16.8867L12.5625 24H6.98438Z" fill="white"/>
<path d="M36.7175 24V7.28571H42.0387V24H36.7175ZM39.3835 5.33789C38.6363 5.33789 37.9943 5.09124 37.4575 4.59793C36.9206 4.09738 36.6522 3.49526 36.6522 2.79157C36.6522 2.09514 36.9206 1.50028 37.4575 1.00698C37.9943 0.506417 38.6363 0.256137 39.3835 0.256137C40.138 0.256137 40.78 0.506417 41.3096 1.00698C41.8464 1.50028 42.1148 2.09514 42.1148 2.79157C42.1148 3.49526 41.8464 4.09738 41.3096 4.59793C40.78 5.09124 40.138 5.33789 39.3835 5.33789Z" fill="white"/>
<path d="M45.4957 4.71094V0H65.7809V4.71094H58.5036V24H52.7848V4.71094H45.4957Z" fill="white"/>
<path d="M74.9045 0V24H69.1037V0H74.9045Z" fill="white"/>
</svg>
